:SAMPLES-PER-SECOND 30
:FULLY-SPECIFIED
:DEGREES
305
root  34.8423665 36.57578296 -14.16760092 9.780912399 -1.922611117 3.452731609
lowerback  -8.409580231 0.1482289732 -0.6648381352
upperback  -3.775919914 0.7927939892 -4.181119919
thorax  0.8570759892 0.5777040124 -3.879390001
lowerneck  -14.44760036 -6.097410202 -4.330120087
upperneck  15.86639977 -9.264670372 7.795450211
head  7.855269909 -4.127490044 2.205640078
lclavicle  0 -4.497500157e-015 -2.743230041e-014
lhumerus  -47.80590057 30.93569946 61.99750137
lradius  -0.05263053626 -6.507048965e-006 29.70639992
lwrist  3.192251654e-007 -3.790274832e-007 -28.91580009
lhand  -4.410347018e-031 -36.80820084 -10.72949982
lfingers  90 7.125020027 -90
lthumb  94.78452273 -25.5675149 100.9757892
rclavicle  0 -4.497500157e-015 -2.743230041e-014
rhumerus  -28.31550026 -22.27779961 -35.88240051
rradius  -5.16745672e-007 2.214343908e-008 115.8209991
rwrist  0.0006954420824 -0.004670973402 172.3210297
rhand  -1.770623531e-031 4.333079815 -5.267119884
rfingers  -90 -7.125020027 -90
rthumb  -83.93193415 -10.48547424 -59.70908151
rfemur  -10.57713127 14.49302387 12.91723061
rtibia  -0.05385890976 -0.6778489947 17.85673332
rfoot  1.237647653 -20.83095741 -36.82403946
rtoes  3.877326673 19.635675 -101.4030224
lfemur  -3.991784811 -16.83882523 -22.14167213
ltibia  6.724847794 0.2283783257 7.468072414
lfoot  0.3610847592 -22.62999916 35.14409256
ltoes  -8.547567483 -18.14945855 -115.7577042
306
root  34.84166964 36.5791471 -14.17093352 9.752419472 -1.903636694 3.428138018
lowerback  -8.434229851 0.124263078 -0.702830255
upperback  -3.769340038 0.7644630075 -4.169489861
thorax  0.8752279878 0.5640630126 -3.848099947
lowerneck  -14.48970032 -6.022359848 -4.324590206
upperneck  15.91699982 -9.183719635 7.860990047
head  7.877369881 -4.082260132 2.234630346
lclavicle  0 -4.497500157e-015 -2.743230041e-014
lhumerus  -47.81940079 30.93110085 62.00389862
lradius  -0.05344349146 -6.507048965e-006 29.71299934
lwrist  3.192251654e-007 -3.790274832e-007 -28.86779976
lhand  -4.40946029e-031 -36.7928009 -10.68690014
lfingers  90 7.125020027 -90
lthumb  94.76832672 -25.52634129 100.9554259
rclavicle  0 -4.497500157e-015 -2.743230041e-014
rhumerus  -29.93499947 -22.18880081 -36.25669861
rradius  -5.16745672e-007 2.214343908e-008 116.1679993
rwrist  0.0006954420824 -0.004670973402 172.3260345
rhand  -1.771272517e-031 4.601819992 -5.569429874
rfingers  -90 -7.125020027 -90
rthumb  -84.01712349 -10.23759334 -59.47347959
rfemur  -10.52997971 14.5732584 12.9540987
rtibia  -0.04150759801 -0.5956972837 17.82297134
rfoot  1.228930473 -20.67240906 -36.96391296
rtoes  3.889144126 19.63342657 -101.4381913
lfemur  -4.080851078 -16.84010315 -22.065382
ltibia  6.622685432 0.2427260578 7.662108898
lfoot  0.3667546213 -22.73718452 35.12678146
ltoes  -8.560305061 -18.14361291 -115.7986021
307
root  34.84106289 36.57392967 -14.17238731 9.72456646 -1.889003396 3.427527905
lowerback  -8.452009201 0.1034750342 -0.6997323036
upperback  -3.761270046 0.735476017 -4.152800083
thorax  0.8914279938 0.5490919948 -3.834929943
lowerneck  -14.54059982 -5.94987011 -4.315299988
upperneck  15.96259975 -9.103019714 7.915090084
head  7.898600101 -4.037390232 2.259150028
lclavicle  0 -4.497500157e-015 -2.743230041e-014
lhumerus  -47.84529877 30.9321003 62.00799942
lradius  -0.05422348529 -6.507048965e-006 29.74769974
lwrist  3.192251654e-007 -3.790274832e-007 -28.76639938
lhand  -4.411539904e-031 -36.82889938 -10.68379974
lfingers  90 7.125020027 -90
lthumb  94.78458383 -25.52196928 100.9937526
rclavicle  0 -4.497500157e-015 -2.743230041e-014
rhumerus  -31.47579956 -22.10080147 -36.6753006
rradius  -5.16745672e-007 2.214343908e-008 116.3840027
rwrist  0.0006954420824 -0.004670973402 172.1580505
rhand  -1.771410377e-031 4.656889915 -5.684249878
rfingers  -90 -7.125020027 -90
rthumb  -84.06209884 -10.14144615 -59.42994643
rfemur  -10.51514149 14.52601337 12.95871639
rtibia  -0.03920637816 -0.6190296412 17.84148216
rfoot  1.246643066 -20.73243713 -36.86810303
rtoes  3.893521665 19.63259187 -101.4512199
lfemur  -4.018704414 -16.78865623 -22.08343506
ltibia  6.653710842 0.270601958 7.591281414
lfoot  0.3620816171 -22.78194618 35.10141754
ltoes  -8.582365106 -18.13346325 -115.8694627
308
root  34.84072047 36.57303457 -14.17698898 9.700956345 -1.883280516 3.410873413
lowerback  -8.458979607 0.07257734239 -0.7184931636
upperback  -3.758069992 0.6933040023 -4.120419979
thorax  0.8954839706 0.5274779797 -3.794280052
lowerneck  -14.52130032 -5.876039982 -4.229949951
upperneck  15.90909958 -8.998419762 7.848889828
head  7.863299847 -3.988800287 2.23762989
lclavicle  0 -4.497500157e-015 -2.743230041e-014
lhumerus  -47.93149948 31.07150078 61.93759918
lradius  -0.0549688153 -6.507048965e-006 29.76479912
lwrist  3.192251654e-007 -3.790274832e-007 -28.82920074
lhand  -0 -36.90200043 -10.65149975
lfingers  90 7.125020027 -90
lthumb  94.81200627 -25.48770008 101.06903
rclavicle  0 -4.497500157e-015 -2.743230041e-014
rhumerus  -33.0245018 -22.06550026 -37.21289825
rradius  -5.16745672e-007 2.214343908e-008 116.5390015
rwrist  0.0006954420824 -0.004670973402 172.3280182
rhand  -1.771934622e-031 4.860549927 -5.444180012
rfingers  -90 -7.125020027 -90
rthumb  -83.8843206 -10.35799415 -59.20826702
rfemur  -10.50130844 14.50754547 12.97541237
rtibia  -0.03982487693 -0.6163999438 17.84716415
rfoot  1.239121079 -20.75438881 -36.86568069
rtoes  3.889037205 19.63344695 -101.4378731
lfemur  -4.020376682 -16.79265976 -22.05669594
ltibia  6.626937866 0.2710790038 7.630249977
lfoot  0.3559112549 -22.79188538 35.11267853
ltoes  -8.602598352 -18.1241254 -115.9344892
309
root  34.84006566 36.57156276 -14.18152456 9.665692329 -1.873065948 3.403389931
lowerback  -8.47328949 0.06225358695 -0.7010088563
upperback  -3.74319005 0.6786720157 -4.129260063
thorax  0.9180949926 0.5198709965 -3.814640045
lowerneck  -14.56270027 -5.818999767 -4.136060238
upperneck  15.87049961 -8.935059547 7.849329948
head  7.849669933 -3.952490091 2.22961998
lclavicle  0 -4.497500157e-015 -2.743230041e-014
lhumerus  -47.90129852 31.12610054 61.89410019
lradius  -0.05567777529 -6.507048965e-006 29.74309921
lwrist  3.192251654e-007 -3.790274832e-007 -28.88850021
lhand  -0 -36.8586998 -10.63469982
lfingers  90 7.125020027 -90
lthumb  94.78815203 -25.4727479 101.0211389
rclavicle  0 -4.497500157e-015 -2.743230041e-014
rhumerus  -34.51699829 -22.08810043 -37.76110077
rradius  -5.16745672e-007 2.214343908e-008 116.5579987
rwrist  0.0006954420824 -0.004670973402 172.2390137
rhand  -1.772276595e-031 4.988870144 -5.482379913
rfingers  -90 -7.125020027 -90
rthumb  -83.87027267 -10.33144923 -59.08592358
rfemur  -10.47335339 14.51794243 12.99365234
rtibia  -0.03915242106 -0.6051305532 17.85907555
rfoot  1.227850676 -20.75777054 -36.88882065
rtoes  3.901706928 19.63102849 -101.4755827
lfemur  -4.028750896 -16.7925396 -22.03495216
ltibia  6.590714931 0.2784248292 7.690150738
lfoot  0.3517924547 -22.82760811 35.11149597
ltoes  -8.594053447 -18.12807231 -115.9070233
310
root  34.83864792 36.57593614 -14.18468896 9.635536194 -1.849911571 3.411799192
lowerback  -8.482439995 0.02225586213 -0.6409452558
upperback  -3.781419992 0.6196089983 -4.092380047
thorax  0.879956007 0.4897879958 -3.815819979
lowerneck  -14.44779968 -5.724989891 -4.208479881
upperneck  15.85630035 -8.801039696 7.888800144
head  7.821020126 -3.893539667 2.273720026
lclavicle  0 -4.497500157e-015 -2.743230041e-014
lhumerus  -48.05260086 31.0720005 61.89419937
lradius  -0.05634866655 -6.507048965e-006 29.80120087
lwrist  3.192251654e-007 -3.790274832e-007 -28.71999931
lhand  -0 -36.82910156 -10.70300007
lfingers  90 7.125020027 -90
lthumb  94.78875392 -25.54089956 100.9957214
rclavicle  0 -4.497500157e-015 -2.743230041e-014
rhumerus  -35.97019958 -21.93020248 -38.27690125
rradius  -5.16745672e-007 2.214343908e-008 116.5230026
rwrist  0.0006954420824 -0.004670973402 172.1150513
rhand  -0 5.069950104 -5.718249798
rfingers  -90 -7.125020027 -90
rthumb  -83.97218158 -10.13320163 -59.0283827
rfemur  -10.47717667 14.58972836 13.01045322
rtibia  -0.05824749544 -0.5471485257 17.92516708
rfoot  1.206856251 -20.65797806 -36.94345474
rtoes  3.920850657 19.62735866 -101.5325697
lfemur  -3.878796101 -16.74357605 -22.102705
ltibia  6.692824841 0.2824253142 7.478946209
lfoot  0.331494689 -22.76932526 35.08323288
ltoes  -8.579061718 -18.13498519 -115.8588492
311
root  34.83685171 36.57542852 -14.18892718 9.628713608 -1.824257493 3.401868343
lowerback  -8.494259834 -0.0122144036 -0.6389510632
upperback  -3.774909973 0.5703960061 -4.054540157
thorax  0.8898550272 0.4641869962 -3.781879902
lowerneck  -14.44569969 -5.651860237 -4.237850189
upperneck  15.87580013 -8.695219994 7.891180038
head  7.82145977 -3.843980074 2.292269945
lclavicle  0 -4.497500157e-015 -2.743230041e-014
lhumerus  -48.11819839 31.10199928 61.91429901
lradius  -0.0569797866 -6.507048965e-006 29.82960129
lwrist  3.192251654e-007 -3.790274832e-007 -28.6291008
lhand  -4.408240579e-031 -36.77159882 -10.69909954
lfingers  90 7.125020027 -90
lthumb  94.76093921 -25.53903779 100.9338349
rclavicle  0 -4.497500157e-015 -2.743230041e-014
rhumerus  -37.29600143 -21.86629868 -38.81549835
rradius  -5.16745672e-007 2.214343908e-008 116.4199982
rwrist  0.0006954420824 -0.004670973402 172.257019
rhand  -1.772936348e-031 5.227429867 -6.015799999
rfingers  -90 -7.125020027 -90
rthumb  -84.08695906 -9.886571401 -58.90122156
rfemur  -10.49212742 14.63605022 13.02894211
rtibia  -0.06107236445 -0.4984305203 17.96428871
rfoot  1.187823415 -20.58582687 -36.99453735
rtoes  3.933195382 19.62498224 -101.5693228
lfemur  -3.846457481 -16.76620483 -22.10448456
ltibia  6.707829475 0.2695209682 7.430517197
lfoot  0.2981643081 -22.7062912 35.05458069
ltoes  -8.551489724 -18.14765968 -115.7702964
